<svg data-logo="logo" xmlns="http://www.w3.org/2000/svg" viewBox="0 0 251 43">
        <g style="opacity: 1;" id="logogram" transform="translate(0, 1) rotate(0)"><path d="M25.3019 0.809967L50.3018 15.8198V25.7963L25.3019 40.81L0.301758 25.7963V15.8199L25.3019 0.809967Z" fill="#A5B4FC"></path><path fill-rule="evenodd" clip-rule="evenodd" d="M0.301758 15.8198L25.3018 0.809967L50.3018 15.8198V25.7963L25.3018 40.81L0.301758 25.7963V15.8198ZM25.3018 34.441L44.9985 22.6122V19.0051L44.9975 19.0045L25.3018 30.8297L5.60602 19.0045L5.60506 19.0051V22.6122L25.3018 34.441ZM25.3018 25.3146L40.4036 16.2476L36.7247 14.0398L25.3018 20.8981L13.8789 14.0398L10.2 16.2476L25.3018 25.3146ZM25.3018 15.383L32.1308 11.2829L25.3018 7.18464L18.4728 11.2829L25.3018 15.383Z" fill="#4F46E5"></path><path d="M25.3019 0.809967L0.301758 15.8199V25.7963L25.3018 40.81L25.3019 0.809967Z" fill="#A5B4FC" fill-opacity="0.3"></path></g>
        <g style="opacity: 1;" id="logotype" transform="translate(57, 8)"><path fill="#565be1" d="M8.31 1.54L13.52 1.54L13.52 27L8.31 27L8.31 1.54ZM20.87 27L15.74 27L15.74 7.89L20.49 7.89L20.75 12.64L20.37 12.64Q20.81 10.88 21.68 9.77Q22.54 8.66 23.70 8.13Q24.87 7.60 26.15 7.60L26.15 7.60Q28.21 7.60 29.48 8.91Q30.74 10.22 31.34 12.95L31.34 12.95L30.74 12.95Q31.17 11.12 32.14 9.94Q33.10 8.75 34.43 8.18Q35.75 7.60 37.20 7.60L37.20 7.60Q38.96 7.60 40.34 8.37Q41.72 9.14 42.51 10.59Q43.31 12.03 43.31 14.11L43.31 14.11L43.31 27L38.18 27L38.18 15.09Q38.18 13.46 37.30 12.68Q36.42 11.89 35.14 11.89L35.14 11.89Q34.18 11.89 33.47 12.31Q32.76 12.73 32.38 13.48Q31.99 14.23 31.99 15.24L31.99 15.24L31.99 27L27.04 27L27.04 14.95Q27.04 13.55 26.21 12.72Q25.38 11.89 24.06 11.89L24.06 11.89Q23.16 11.89 22.43 12.30Q21.70 12.71 21.28 13.51Q20.87 14.30 20.87 15.45L20.87 15.45L20.87 27ZM53.95 27.38L53.95 27.38Q51.08 27.38 48.98 26.14Q46.87 24.90 45.74 22.68Q44.60 20.47 44.60 17.53L44.60 17.53Q44.60 14.56 45.74 12.35Q46.87 10.13 48.98 8.89Q51.08 7.65 53.95 7.65L53.95 7.65Q56.84 7.65 58.93 8.89Q61.03 10.13 62.16 12.35Q63.30 14.56 63.30 17.53L63.30 17.53Q63.30 20.47 62.16 22.68Q61.03 24.90 58.93 26.14Q56.84 27.38 53.95 27.38ZM53.95 23.34L53.95 23.34Q55.32 23.34 56.24 22.58Q57.16 21.82 57.62 20.50Q58.09 19.17 58.09 17.52L58.09 17.52Q58.09 15.82 57.62 14.51Q57.16 13.19 56.24 12.44Q55.32 11.69 53.95 11.69L53.95 11.69Q52.58 11.69 51.67 12.44Q50.75 13.19 50.29 14.51Q49.83 15.82 49.83 17.52L49.83 17.52Q49.83 19.17 50.29 20.50Q50.75 21.82 51.67 22.58Q52.58 23.34 53.95 23.34ZM75.29 27.32L75.29 27.32Q73.74 27.32 72.66 26.79Q71.58 26.27 70.91 25.49Q70.23 24.71 69.88 23.94L69.88 23.94L69.64 23.94L69.64 27L64.59 27L64.59 1.54L69.72 1.54L69.72 11.11L69.88 11.11Q70.23 10.35 70.89 9.55Q71.55 8.75 72.63 8.20Q73.70 7.65 75.33 7.65L75.33 7.65Q77.45 7.65 79.21 8.75Q80.97 9.84 82.02 12.03Q83.07 14.22 83.07 17.48L83.07 17.48Q83.07 20.66 82.04 22.86Q81.02 25.05 79.26 26.19Q77.50 27.32 75.29 27.32ZM73.72 23.21L73.72 23.21Q75.05 23.21 75.97 22.47Q76.88 21.74 77.35 20.44Q77.82 19.14 77.82 17.46L77.82 17.46Q77.82 15.79 77.35 14.51Q76.88 13.23 75.98 12.49Q75.07 11.76 73.72 11.76L73.72 11.76Q72.40 11.76 71.48 12.47Q70.56 13.17 70.08 14.45Q69.60 15.72 69.60 17.46L69.60 17.46Q69.60 19.19 70.09 20.48Q70.58 21.77 71.50 22.49Q72.42 23.21 73.72 23.21ZM89.51 27L84.38 27L84.38 7.89L89.51 7.89L89.51 27ZM86.95 5.40L86.95 5.40Q85.78 5.40 84.96 4.63Q84.14 3.86 84.14 2.77L84.14 2.77Q84.14 1.67 84.96 0.90Q85.78 0.13 86.95 0.13L86.95 0.13Q88.11 0.13 88.94 0.90Q89.77 1.66 89.77 2.77L89.77 2.77Q89.77 3.86 88.94 4.63Q88.11 5.40 86.95 5.40ZM102.99 27.34L102.99 27.34Q99.42 27.34 96.73 25.76Q94.04 24.18 92.52 21.25Q91.01 18.32 91.01 14.30L91.01 14.30Q91.01 10.17 92.58 7.24Q94.16 4.30 96.84 2.75Q99.52 1.19 102.87 1.19L102.87 1.19Q105.03 1.19 106.88 1.82Q108.73 2.44 110.18 3.59Q111.62 4.73 112.54 6.30Q113.45 7.86 113.72 9.74L113.72 9.74L108.43 9.74Q108.15 8.83 107.67 8.11Q107.18 7.38 106.49 6.87Q105.79 6.36 104.91 6.09Q104.02 5.83 102.96 5.83L102.96 5.83Q100.99 5.83 99.49 6.81Q97.98 7.79 97.15 9.67Q96.31 11.55 96.31 14.25L96.31 14.25Q96.31 16.95 97.14 18.84Q97.97 20.73 99.47 21.72Q100.98 22.71 103.03 22.71L103.03 22.71Q104.87 22.71 106.19 22.04Q107.50 21.38 108.21 20.15Q108.92 18.92 108.92 17.24L108.92 17.24L110.02 17.40L103.38 17.40L103.38 13.43L113.98 13.43L113.98 16.61Q113.98 19.96 112.56 22.36Q111.14 24.76 108.67 26.05Q106.19 27.34 102.99 27.34ZM124.22 27.38L124.22 27.38Q121.29 27.38 119.17 26.18Q117.05 24.98 115.92 22.78Q114.78 20.57 114.78 17.55L114.78 17.55Q114.78 14.59 115.91 12.37Q117.04 10.15 119.11 8.90Q121.17 7.65 123.96 7.65L123.96 7.65Q125.84 7.65 127.46 8.25Q129.09 8.85 130.32 10.06Q131.55 11.26 132.24 13.07Q132.93 14.88 132.93 17.34L132.93 17.34L132.93 18.78L116.88 18.78L116.88 15.57L130.42 15.57L128.03 16.42Q128.03 14.93 127.57 13.83Q127.12 12.73 126.22 12.12Q125.33 11.52 123.99 11.52L123.99 11.52Q122.68 11.52 121.75 12.13Q120.81 12.75 120.34 13.80Q119.86 14.85 119.86 16.20L119.86 16.20L119.86 18.47Q119.86 20.13 120.41 21.26Q120.97 22.39 121.97 22.95Q122.97 23.51 124.30 23.51L124.30 23.51Q125.21 23.51 125.94 23.26Q126.68 23.00 127.20 22.50Q127.72 21.99 127.99 21.26L127.99 21.26L132.64 22.13Q132.18 23.70 131.03 24.89Q129.89 26.08 128.17 26.73Q126.45 27.38 124.22 27.38ZM141.75 27.38L141.75 27.38Q139.44 27.38 137.66 26.72Q135.89 26.06 134.76 24.80Q133.63 23.55 133.30 21.77L133.30 21.77L138.07 20.95Q138.45 22.28 139.39 22.95Q140.33 23.62 141.90 23.62L141.90 23.62Q143.35 23.62 144.21 23.06Q145.06 22.51 145.06 21.65L145.06 21.65Q145.06 20.90 144.46 20.42Q143.85 19.94 142.60 19.69L142.60 19.69L139.30 19.00Q136.53 18.44 135.17 17.08Q133.80 15.72 133.80 13.58L133.80 13.58Q133.80 11.74 134.81 10.41Q135.82 9.09 137.61 8.37Q139.41 7.65 141.83 7.65L141.83 7.65Q144.09 7.65 145.75 8.28Q147.40 8.90 148.43 10.05Q149.45 11.19 149.80 12.75L149.80 12.75L145.25 13.55Q144.96 12.58 144.13 11.95Q143.30 11.33 141.90 11.33L141.90 11.33Q140.64 11.33 139.78 11.86Q138.93 12.39 138.93 13.26L138.93 13.26Q138.93 13.99 139.48 14.49Q140.04 14.99 141.39 15.26L141.39 15.26L144.82 15.94Q147.59 16.51 148.94 17.78Q150.29 19.05 150.29 21.10L150.29 21.10Q150.29 22.98 149.20 24.39Q148.10 25.80 146.18 26.59Q144.26 27.38 141.75 27.38ZM149.64 7.89L160.97 7.89L160.97 11.81L149.64 11.81L149.64 7.89ZM152.27 21.86L152.27 3.35L157.40 3.35L157.40 21.41Q157.40 22.32 157.80 22.75Q158.20 23.19 159.14 23.19L159.14 23.19Q159.43 23.19 159.96 23.11Q160.49 23.04 160.77 22.97L160.77 22.97L161.50 26.81Q160.65 27.07 159.80 27.17Q158.95 27.27 158.19 27.27L158.19 27.27Q155.31 27.27 153.79 25.87Q152.27 24.47 152.27 21.86L152.27 21.86ZM170.57 27.38L170.57 27.38Q167.70 27.38 165.60 26.14Q163.50 24.90 162.36 22.68Q161.23 20.47 161.23 17.53L161.23 17.53Q161.23 14.56 162.36 12.35Q163.50 10.13 165.60 8.89Q167.70 7.65 170.57 7.65L170.57 7.65Q173.46 7.65 175.56 8.89Q177.65 10.13 178.79 12.35Q179.92 14.56 179.92 17.53L179.92 17.53Q179.92 20.47 178.79 22.68Q177.65 24.90 175.56 26.14Q173.46 27.38 170.57 27.38ZM170.57 23.34L170.57 23.34Q171.94 23.34 172.86 22.58Q173.79 21.82 174.25 20.50Q174.71 19.17 174.71 17.52L174.71 17.52Q174.71 15.82 174.25 14.51Q173.79 13.19 172.86 12.44Q171.94 11.69 170.57 11.69L170.57 11.69Q169.21 11.69 168.29 12.44Q167.38 13.19 166.92 14.51Q166.46 15.82 166.46 17.52L166.46 17.52Q166.46 19.17 166.92 20.50Q167.38 21.82 168.29 22.58Q169.21 23.34 170.57 23.34ZM186.35 27L181.22 27L181.22 7.89L186.17 7.89L186.17 11.23L186.38 11.23Q186.91 9.45 188.15 8.54Q189.39 7.64 190.99 7.64L190.99 7.64Q191.39 7.64 191.84 7.68Q192.29 7.72 192.65 7.81L192.65 7.81L192.65 12.39Q192.31 12.27 191.66 12.20Q191.01 12.13 190.43 12.13L190.43 12.13Q189.27 12.13 188.33 12.64Q187.39 13.14 186.87 14.04Q186.35 14.93 186.35 16.13L186.35 16.13L186.35 27Z"></path></g>
        
      </svg>